<?xml version="1.0" encoding="UTF-8"?>
<svg width="300" height="200" viewBox="0 0 300 200" xmlns="http://www.w3.org/2000/svg">
  <!-- Ejes -->
  <line x1="40" y1="160" x2="40" y2="40" stroke="#333" stroke-width="2"/>
  <line x1="40" y1="160" x2="260" y2="160" stroke="#333" stroke-width="2"/>
  
  <!-- Barras del gráfico -->
  <rect x="60" y="140" width="20" height="20" fill="#333"/>
  <rect x="100" y="120" width="20" height="40" fill="#333"/>
  <rect x="140" y="100" width="20" height="60" fill="#333"/>
  <rect x="180" y="70" width="20" height="90" fill="#333"/>
  <rect x="220" y="40" width="20" height="120" fill="#333"/>
  
  <!-- Marcas en ejes -->
  <line x1="35" y1="40" x2="40" y2="40" stroke="#333" stroke-width="1"/>
  <line x1="35" y1="80" x2="40" y2="80" stroke="#333" stroke-width="1"/>
  <line x1="35" y1="120" x2="40" y2="120" stroke="#333" stroke-width="1"/>
  <line x1="35" y1="160" x2="40" y2="160" stroke="#333" stroke-width="1"/>
  
  <line x1="70" y1="165" x2="70" y2="160" stroke="#333" stroke-width="1"/>
  <line x1="110" y1="165" x2="110" y2="160" stroke="#333" stroke-width="1"/>
  <line x1="150" y1="165" x2="150" y2="160" stroke="#333" stroke-width="1"/>
  <line x1="190" y1="165" x2="190" y2="160" stroke="#333" stroke-width="1"/>
  <line x1="230" y1="165" x2="230" y2="160" stroke="#333" stroke-width="1"/>
  
  <!-- Flecha de crecimiento -->
  <path d="M30,130 C60,120 100,80 140,60 C180,40 220,20 250,10" 
        stroke="#0099ff" 
        stroke-width="6" 
        fill="none" 
        stroke-linecap="round"
        stroke-linejoin="round"/>
  
  <!-- Punta de flecha -->
  <polygon points="240,5 255,0 250,15" fill="#0099ff"/>
</svg> 