<?xml version="1.0" encoding="UTF-8"?>
<svg width="200" height="200" viewBox="0 0 200 200" xmlns="http://www.w3.org/2000/svg">
  <!-- Círculo de fondo -->
  <circle cx="100" cy="100" r="100" fill="white"/>
  
  <!-- Smartphone -->
  <rect x="65" y="50" width="40" height="80" rx="5" ry="5" fill="#2c3e50" stroke="#34495e" stroke-width="2"/>
  <rect x="69" y="58" width="32" height="60" fill="#34495e"/>
  <circle cx="85" cy="125" r="3" fill="#7f8c8d"/>
  <rect x="78" y="53" width="14" height="2" rx="1" ry="1" fill="#7f8c8d"/>
  
  <!-- Destornillador -->
  <g transform="translate(110, 80) rotate(45)">
    <rect x="-5" y="-40" width="10" height="80" rx="2" ry="2" fill="#e74c3c"/>
    <rect x="-8" y="-40" width="16" height="5" rx="1" ry="1" fill="#c0392b"/>
    <rect x="-8" y="35" width="16" height="10" rx="1" ry="1" fill="#95a5a6"/>
    <rect x="-2" y="35" width="4" height="10" fill="#7f8c8d"/>
  </g>
  
  <!-- Líneas curvas decorativas -->
  <path d="M30,100 C30,60 50,30 100,30" fill="none" stroke="#e74c3c" stroke-width="3" stroke-linecap="round" opacity="0.5"/>
  <path d="M170,100 C170,140 150,170 100,170" fill="none" stroke="#e74c3c" stroke-width="3" stroke-linecap="round" opacity="0.5"/>
</svg> 