<?xml version="1.0" encoding="UTF-8"?>
<svg width="400" height="400" viewBox="0 0 400 400" xmlns="http://www.w3.org/2000/svg">
  <!-- Nubes decorativas -->
  <path d="M200,100 C220,80 250,80 270,100 C290,80 320,80 340,100 C360,100 380,120 380,140 C380,160 360,180 340,180 C340,200 320,220 300,220 C280,220 260,200 260,180 C240,200 210,200 190,180 C190,200 170,220 150,220 C130,220 110,200 110,180 C90,180 70,160 70,140 C70,120 90,100 110,100 C130,80 160,80 180,100 C160,120 160,150 180,170 C200,190 230,190 250,170 C270,150 270,120 250,100 C230,80 220,80 200,100" 
        fill="#f0f0f0" stroke="#d0d0d0" stroke-width="1"/>
  
  <!-- Smartphone -->
  <g transform="translate(200, 240) rotate(-10)">
    <rect x="-70" y="-130" width="140" height="260" rx="15" ry="15" fill="#fff" stroke="#ccc" stroke-width="3"/>
    <rect x="-60" y="-110" width="120" height="210" rx="2" ry="2" fill="#666"/>
    <circle cx="0" cy="120" r="15" fill="#888"/>
    <rect x="-20" y="-125" width="40" height="5" rx="2" ry="2" fill="#888"/>
  </g>
  
  <!-- Destornillador flotando -->
  <g transform="translate(180, 140) rotate(135)">
    <!-- Mango -->
    <rect x="-15" y="-70" width="30" height="70" rx="5" ry="5" fill="#e74c3c" stroke="#c0392b" stroke-width="2"/>
    <rect x="-15" y="-70" width="30" height="10" rx="2" ry="2" fill="#c0392b"/>
    
    <!-- Punta -->
    <rect x="-5" y="0" width="10" height="60" fill="#95a5a6" stroke="#7f8c8d" stroke-width="1"/>
    <polygon points="-5,60 5,60 0,70 -5,60" fill="#7f8c8d"/>
  </g>
  
  <!-- Gotas cayendo -->
  <g fill="#e74c3c" opacity="0.8">
    <circle cx="220" cy="330" r="5"/>
    <circle cx="230" cy="360" r="3"/>
    <circle cx="210" cy="350" r="4"/>
  </g>
  
  <!-- Líneas decorativas -->
  <line x1="230" y1="170" x2="250" y2="150" stroke="#e74c3c" stroke-width="2" stroke-linecap="round"/>
  <line x1="250" y1="190" x2="270" y2="170" stroke="#e74c3c" stroke-width="2" stroke-linecap="round"/>
  <line x1="150" y1="160" x2="130" y2="140" stroke="#e74c3c" stroke-width="2" stroke-linecap="round"/>
</svg> 